<svg xmlns="http://www.w3.org/2000/svg" viewBox="0 0 64 64" fill="none">
  <defs>
    <linearGradient id="skyGrad" x1="0%" y1="0%" x2="100%" y2="100%">
      <stop offset="0%" stop-color="#38BDF8" />
      <stop offset="100%" stop-color="#0284C7" />
    </linearGradient>
    <linearGradient id="sideGrad" x1="0%" y1="0%" x2="100%" y2="100%">
      <stop offset="0%" stop-color="#0284C7" />
      <stop offset="100%" stop-color="#0369A1" />
    </linearGradient>
    <linearGradient id="topGrad" x1="0%" y1="0%" x2="100%" y2="100%">
      <stop offset="0%" stop-color="#BAE6FD" />
      <stop offset="100%" stop-color="#38BDF8" />
    </linearGradient>
  </defs>
  <!-- Top Face -->
  <polygon points="32,8 54,20 32,32 10,20" fill="url(#topGrad)" />
  <!-- Left Face -->
  <polygon points="10,20 32,32 32,56 10,44" fill="url(#skyGrad)" />
  <!-- Right Face -->
  <polygon points="32,32 54,20 54,44 32,56" fill="url(#sideGrad)" />
  <!-- Inner Vertex Lines -->
  <line x1="32" y1="32" x2="32" y2="56" stroke="#FFFFFF" stroke-width="1.5" stroke-opacity="0.6"/>
  <line x1="32" y1="32" x2="10" y2="20" stroke="#FFFFFF" stroke-width="1.5" stroke-opacity="0.6"/>
  <line x1="32" y1="32" x2="54" y2="20" stroke="#FFFFFF" stroke-width="1.5" stroke-opacity="0.6"/>
  <!-- Key Vertices -->
  <circle cx="32" cy="8" r="3" fill="#0284C7" stroke="#FFFFFF" stroke-width="1.5"/>
  <circle cx="54" cy="20" r="3" fill="#0284C7" stroke="#FFFFFF" stroke-width="1.5"/>
  <circle cx="10" cy="20" r="3" fill="#0284C7" stroke="#FFFFFF" stroke-width="1.5"/>
  <circle cx="32" cy="32" r="3.5" fill="#38BDF8" stroke="#FFFFFF" stroke-width="1.5"/>
  <circle cx="32" cy="56" r="3" fill="#0369A1" stroke="#FFFFFF" stroke-width="1.5"/>
  <circle cx="10" cy="44" r="2.5" fill="#0284C7" stroke="#FFFFFF" stroke-width="1.5"/>
  <circle cx="54" cy="44" r="2.5" fill="#0369A1" stroke="#FFFFFF" stroke-width="1.5"/>
</svg>